<svg xmlns="http://www.w3.org/2000/svg" viewBox="0 0 64 64">
  <!-- Background -->
  <rect width="64" height="64" fill="#1a1a2e" rx="12"/>

  <!-- Case/folder icon -->
  <path d="M 12 16 L 12 48 C 12 52 15 56 20 56 L 52 56 C 57 56 60 52 60 48 L 60 24 C 60 20 57 16 52 16 L 32 16 L 28 20 L 20 20 C 15 20 12 24 12 28 Z"
        fill="#00d9ff" stroke="#0088cc" stroke-width="1.5"/>

  <!-- Checkmark (cases solved) -->
  <path d="M 22 36 L 28 42 L 40 30"
        fill="none" stroke="#00ff88" stroke-width="3" stroke-linecap="round" stroke-linejoin="round"/>

  <!-- Spark (energy/automation) -->
  <g transform="translate(48, 28)">
    <path d="M 0 -4 L 1 -1 L 4 0 L 1 1 L 0 4 L -1 1 L -4 0 L -1 -1 Z"
          fill="#ffaa00" opacity="0.8"/>
  </g>
</svg>
